<svg width="250" height="250" viewBox="0 0 250 250" fill="none" xmlns="http://www.w3.org/2000/svg">
<path d="M90.6972 52.2039L60 221.039L104.089 68.1439C105.482 63.3107 109.076 59.371 113.83 57.7285C187.299 32.3481 150.139 88.041 116.983 125.242C115.069 127.389 116.891 130.627 119.665 129.868C144.93 122.96 184.244 102.475 189.986 60.4673C195.968 16.7089 137.281 27.4118 100.577 40.3692C95.3731 42.2062 91.6844 46.7744 90.6972 52.2039Z" fill="#5909EE"/>
<path d="M133.081 172.83C131.396 172.83 129.977 172.34 128.824 171.359C127.715 170.334 127.161 169.019 127.161 167.415C127.161 165.811 127.715 164.518 128.824 163.538C129.977 162.513 131.396 162 133.081 162C134.766 162 136.162 162.513 137.271 163.538C138.424 164.518 139 165.811 139 167.415C139 169.019 138.424 170.334 137.271 171.359C136.162 172.34 134.766 172.83 133.081 172.83ZM128.491 180.719C128.491 178.802 129.245 177.443 130.753 176.641C132.26 175.794 134.544 175.37 137.603 175.37V204.652C137.603 206.568 136.85 207.95 135.342 208.797C133.834 209.599 131.551 210 128.491 210V180.719Z" fill="#5909EE"/>
<path d="M102.024 210C99.8514 210 97.8118 209.577 95.9052 208.73C94.0429 207.838 92.5353 206.568 91.3825 204.919C90.2296 203.226 89.6532 201.198 89.6532 198.836C89.6532 196.474 90.274 194.446 91.5155 192.752C92.757 191.014 94.3976 189.699 96.4372 188.808C98.5212 187.916 100.783 187.471 103.221 187.471C105.261 187.471 107.057 187.783 108.609 188.407C110.205 189.031 111.69 189.944 113.065 191.148L113.397 190.747C112.466 189.9 111.735 189.298 111.202 188.941V188.072C111.202 186.379 110.582 185.042 109.34 184.061C108.143 183.036 106.436 182.524 104.219 182.524C102.268 182.524 100.539 182.88 99.0311 183.593C97.5236 184.306 96.3042 185.354 95.3731 186.735C94.3089 186.468 93.4 185.978 92.6462 185.265C91.9367 184.507 91.582 183.682 91.582 182.791C91.582 181.409 92.1806 180.162 93.3778 179.047C94.575 177.889 96.1934 176.997 98.233 176.373C100.317 175.705 102.601 175.37 105.084 175.37C109.917 175.37 113.641 176.485 116.257 178.713C118.873 180.942 120.181 183.972 120.181 187.805V204.05C120.181 206.145 119.494 207.66 118.12 208.596C116.789 209.532 114.661 210 111.735 210V207.393C112.4 206.769 112.932 206.212 113.331 205.721L112.998 205.387C111.535 206.902 110.005 208.061 108.409 208.864C106.813 209.621 104.684 210 102.024 210ZM104.551 203.448C106.68 203.448 108.343 203.047 109.54 202.245C110.737 201.443 111.335 200.284 111.335 198.769C111.335 197.298 110.715 196.139 109.473 195.292C108.276 194.446 106.635 194.022 104.551 194.022C102.689 194.022 101.204 194.446 100.095 195.292C99.0311 196.139 98.4991 197.298 98.4991 198.769C98.4991 200.284 99.0311 201.443 100.095 202.245C101.204 203.047 102.689 203.448 104.551 203.448Z" fill="#5909EE"/>
<path d="M79.4538 210C77.9463 210 76.6604 209.51 75.5962 208.529C74.5321 207.504 74 206.212 74 204.652C74 203.092 74.5321 201.799 75.5962 200.774C76.6604 199.749 77.9463 199.237 79.4538 199.237C80.9614 199.237 82.2472 199.749 83.3114 200.774C84.4199 201.799 84.9741 203.092 84.9741 204.652C84.9741 206.212 84.4199 207.504 83.3114 208.529C82.2472 209.51 80.9614 210 79.4538 210Z" fill="#5909EE"/>
</svg>
